<svg xmlns="http://www.w3.org/2000/svg" xmlns:xlink="http://www.w3.org/1999/xlink" width="295" height="131" viewBox="0 0 295 131">
  <defs>
    <clipPath id="clip-path">
      <rect id="Rectangle_35" data-name="Rectangle 35" width="295" height="131" transform="translate(0 0)" fill="#fff" stroke="#707070" stroke-width="1"/>
    </clipPath>
    <clipPath id="clip-path-2">
      <rect id="Rectangle_13" data-name="Rectangle 13" width="252.855" height="194.888" transform="translate(0 0)"/>
    </clipPath>
    <clipPath id="clip-path-3">
      <path id="Path_45" data-name="Path 45" d="M-.475,203.85H250.933V63.672H-.475Z" transform="translate(0.475 -63.672)" fill="#fff"/>
    </clipPath>
    <clipPath id="clip-path-4">
      <path id="Path_37" data-name="Path 37" d="M8.6,173.825H87.382V63.672H8.6Z" transform="translate(-8.6 -63.672)" fill="#fff"/>
    </clipPath>
    <clipPath id="clip-path-5">
      <path id="Path_39" data-name="Path 39" d="M279.348,178.8h88.064V73.781H279.348Z" transform="translate(-279.348 -73.781)" fill="#fff"/>
    </clipPath>
  </defs>
  <g id="sea_force_logo" data-name="sea force logo" transform="translate(0 0)" clip-path="url(#clip-path)">
    <g id="seaforce_logo" data-name="seaforce logo" transform="translate(19.568 -23.82)" clip-path="url(#clip-path-2)">
      <g id="Group_48" data-name="Group 48" transform="translate(-0.23 30.488)" clip-path="url(#clip-path-3)">
        <path id="Path_34" data-name="Path 34" d="M427.556,68.959l10.372,105.486a1.281,1.281,0,0,0,1.314,1.156l26.159-.761a1.28,1.28,0,0,0,1.244-1.291L465.738,65.8a1.283,1.283,0,0,0-1.391-1.267l-35.62,3.019a1.281,1.281,0,0,0-1.166,1.4Z" transform="translate(-220.749 -64.118)" fill="#b67cb4"/>
        <path id="Path_35" data-name="Path 35" d="M150.377,167.019,164.646,65.6a1.3,1.3,0,0,1,1.469-1.107l60.494,8.5a1.3,1.3,0,0,1,1.106,1.47L224.681,96.07a1.3,1.3,0,0,1-1.469,1.106L190.97,92.637a1.3,1.3,0,0,0-1.469,1.107l-1.789,12.718a1.3,1.3,0,0,0,1.107,1.469l30.052,4.228a1.3,1.3,0,0,1,1.106,1.47l-3.039,21.6a1.3,1.3,0,0,1-1.465,1.111l-30.051-4.228a1.3,1.3,0,0,0-1.469,1.106l-1.912,13.592a1.3,1.3,0,0,0,1.106,1.469l39.455,5.679a1.3,1.3,0,0,1,1.086,1.585L218.7,176.874a1.3,1.3,0,0,1-1.447.991l-65.762-9.38a1.3,1.3,0,0,1-1.105-1.469Z" transform="translate(-77.487 -64.086)" fill="#8ec74c"/>
        <g id="Group_45" data-name="Group 45" transform="translate(4.385 0.002)">
          <g id="Group_44" data-name="Group 44" transform="translate(0)" clip-path="url(#clip-path-4)">
            <path id="Path_36" data-name="Path 36" d="M38.633,129.989q-14.131-2.251-21.281-9.282T8.823,100.219Q7.3,85.289,16.2,75.51T42.079,63.987q16.091-1.647,25.53,5.3,9.038,6.65,12.7,21.8a1.33,1.33,0,0,1-1.033,1.6L54.6,97.629a1.33,1.33,0,0,1-1.535-.941q-1.586-5.651-3.479-7.742-2.087-2.3-6.182-1.88a7.222,7.222,0,0,0-5.408,2.771,8.9,8.9,0,0,0-1.347,6.343A9.032,9.032,0,0,0,39.015,102a11.116,11.116,0,0,0,6.167,2.474s5.271.757,12.087,2.018a37.14,37.14,0,0,1,21.3,12.327,34.351,34.351,0,0,1,8.542,19.9q1.662,16.242-7.148,26.237c-5.875,6.663-14.421,8.123-26.516,8.759C29.727,174.961,16,165.646,12.014,142.254a1.324,1.324,0,0,1,1.178-1.529l25.5-2.608a1.321,1.321,0,0,1,1.432,1.036q1.335,6.344,3.924,9.061a8.723,8.723,0,0,0,7.646,2.471,8.36,8.36,0,0,0,6.118-3.069,9.608,9.608,0,0,0,1.572-7.036,9.208,9.208,0,0,0-2.523-5.878,11.943,11.943,0,0,0-6.352-2.825Z" transform="translate(-8.601 -63.673)" fill="#f69442"/>
          </g>
        </g>
        <g id="Group_47" data-name="Group 47" transform="translate(135.197 4.885)">
          <g id="Group_46" data-name="Group 46" clip-path="url(#clip-path-5)">
            <path id="Path_38" data-name="Path 38" d="M322.047,102.244l-6.575,33.6a1.119,1.119,0,0,0,1.1,1.33H329.6a1.119,1.119,0,0,0,1.1-1.33l-6.451-33.6a1.119,1.119,0,0,0-2.2-.007ZM338.724,177.9l-3.329-17.308a1.117,1.117,0,0,0-1.1-.908H311.714a1.117,1.117,0,0,0-1.1.9l-3.466,17.322a1.119,1.119,0,0,1-1.1.9H280.463a1.119,1.119,0,0,1-1.084-1.4L305.865,74.619a1.118,1.118,0,0,1,1.083-.84h34a1.118,1.118,0,0,1,1.085.851l25.336,102.785a1.118,1.118,0,0,1-1.086,1.387H339.818a1.118,1.118,0,0,1-1.1-.909Z" transform="translate(-279.351 -73.78)" fill="#3abebf"/>
          </g>
        </g>
        <path id="Path_40" data-name="Path 40" d="M466.042,96.113l-2.365.131a.356.356,0,0,1-.376-.335l-.526-9.463a.357.357,0,0,0-.375-.337l-5.266.293a.358.358,0,0,0-.336.376l.491,8.856a.355.355,0,0,1-.335.374l-2.4.134a.356.356,0,0,1-.373-.337l-.491-8.86a.356.356,0,0,0-.376-.335l-8.255.458a.357.357,0,0,1-.375-.337l-.165-2.967a.357.357,0,0,1,.338-.374l20.418-1.133a.355.355,0,0,1,.374.336l.728,13.139a.357.357,0,0,1-.337.377Z" transform="translate(-229.519 -73.278)" fill="#fefefe"/>
        <path id="Path_41" data-name="Path 41" d="M449.485,127.94a5.563,5.563,0,0,0,2.407,4.621,9.607,9.607,0,0,0,5.965,1.284,12.549,12.549,0,0,0,3.32-.6,7.36,7.36,0,0,0,2.449-1.338,5.332,5.332,0,0,0,1.488-2.065,7.086,7.086,0,0,0-.307-5.525,5.457,5.457,0,0,0-1.709-1.9,6.984,6.984,0,0,0-2.581-1.059,13.011,13.011,0,0,0-3.366-.2,9.669,9.669,0,0,0-5.787,1.92,5.549,5.549,0,0,0-1.88,4.871Zm-3.077.2a11.132,11.132,0,0,1,.522-4.248,8.967,8.967,0,0,1,2-3.325,9.6,9.6,0,0,1,3.363-2.243,15.492,15.492,0,0,1,9.338-.5,9.885,9.885,0,0,1,3.621,1.871,8.827,8.827,0,0,1,2.37,3.1,11.958,11.958,0,0,1,.462,8.353,8.619,8.619,0,0,1-2,3.311,9.863,9.863,0,0,1-3.365,2.212,14.243,14.243,0,0,1-4.623.972,14.6,14.6,0,0,1-4.728-.438,9.822,9.822,0,0,1-3.6-1.811,8.583,8.583,0,0,1-2.365-3.058,11.256,11.256,0,0,1-.992-4.195Z" transform="translate(-230.487 -91.399)" fill="#fff"/>
        <path id="Path_42" data-name="Path 42" d="M460.954,174.452a7.208,7.208,0,0,0,.366,2.051,3.13,3.13,0,0,0,.782,1.251,2.559,2.559,0,0,0,1.147.607,4.954,4.954,0,0,0,1.46.116,3.817,3.817,0,0,0,1.33-.3,2.4,2.4,0,0,0,.994-.818,3.8,3.8,0,0,0,.589-1.447,8.629,8.629,0,0,0,.113-2.2l-.186-3.35a.357.357,0,0,0-.375-.337l-6.1.34a.356.356,0,0,0-.335.375Zm9.749-.819a12.4,12.4,0,0,1-.336,4.085,6.792,6.792,0,0,1-1.33,2.6,4.987,4.987,0,0,1-1.925,1.4,6.857,6.857,0,0,1-2.141.484,6.626,6.626,0,0,1-3.509-.645,5.709,5.709,0,0,1-2.224-2.251.354.354,0,0,0-.479-.139l-8.179,4.558a.357.357,0,0,1-.53-.292l-.179-3.213a.358.358,0,0,1,.189-.335l7.987-4.247c-.031-.181-.057-.373-.076-.574s-.039-.415-.051-.638l-.2-3.532a.355.355,0,0,0-.375-.336l-7.635.425a.357.357,0,0,1-.375-.336l-.161-2.9a.357.357,0,0,1,.336-.377l20.418-1.133a.354.354,0,0,1,.375.336Z" transform="translate(-231.932 -116.687)" fill="#fefefe"/>
        <path id="Path_43" data-name="Path 43" d="M459.417,224.349a.362.362,0,0,1-.388.38,9.743,9.743,0,0,1-2.682-.622,7.57,7.57,0,0,1-2.525-1.627,7.929,7.929,0,0,1-1.764-2.644,11.068,11.068,0,0,1-.785-3.7,10.733,10.733,0,0,1,.539-4.219,8.361,8.361,0,0,1,2.032-3.221,9.65,9.65,0,0,1,3.387-2.107,15.221,15.221,0,0,1,4.565-.909,14.333,14.333,0,0,1,4.717.454,9.95,9.95,0,0,1,3.615,1.821,8.64,8.64,0,0,1,2.361,3,10.383,10.383,0,0,1,.977,3.968,11.039,11.039,0,0,1-.307,3.551,7.275,7.275,0,0,1-1.294,2.615,7.037,7.037,0,0,1-2.142,1.8,11.678,11.678,0,0,1-2.473.989.366.366,0,0,1-.451-.281l-.569-2.9a.356.356,0,0,1,.249-.4,10.221,10.221,0,0,0,1.551-.62,4.462,4.462,0,0,0,1.353-1.034,4.036,4.036,0,0,0,.807-1.492,5.941,5.941,0,0,0,.2-2.052,5.687,5.687,0,0,0-.707-2.551,5.254,5.254,0,0,0-1.718-1.809,7.5,7.5,0,0,0-2.6-1.028,12.88,12.88,0,0,0-3.338-.211,12.531,12.531,0,0,0-3.321.6,7.469,7.469,0,0,0-2.463,1.341,5.268,5.268,0,0,0-1.492,1.987,5.648,5.648,0,0,0-.409,2.566,6.4,6.4,0,0,0,.446,2.149,4.162,4.162,0,0,0,1,1.452,4.255,4.255,0,0,0,1.49.878,7.7,7.7,0,0,0,1.637.364.357.357,0,0,1,.319.33Z" transform="translate(-233.001 -137.053)" fill="#fefefe"/>
        <path id="Path_44" data-name="Path 44" d="M475,251.132l.76,13.716a.356.356,0,0,1-.336.374l-2.365.131a.355.355,0,0,1-.375-.335l-.558-10.04a.358.358,0,0,0-.374-.337l-4.911.273a.358.358,0,0,0-.337.377l.523,9.431a.357.357,0,0,1-.335.377l-2.4.132a.355.355,0,0,1-.375-.336l-.524-9.433a.357.357,0,0,0-.375-.336l-5.532.307a.356.356,0,0,0-.337.374l.586,10.566a.356.356,0,0,1-.386.374l-2.385-.2a.354.354,0,0,1-.325-.336l-.772-13.915a.357.357,0,0,1,.337-.375l20.418-1.134a.357.357,0,0,1,.376.34Z" transform="translate(-234.353 -160.387)" fill="#fefefe"/>
      </g>
    </g>
  </g>
</svg>
